#N canvas 53 282 501 458 10;
#X declare -lib mrpeach;
#X obj 58 223 dac~;
#X obj 66 148 *~;
#X obj 177 -89 unpackOSC;
#X obj 177 -124 udpreceive 9002;
#X floatatom 101 0 5 0 0 0 - - -;
#X floatatom 193 -1 5 0 0 0 - - -;
#X obj 52 -150 import mrpeach;
#X obj 61 95 osc~;
#X msg 60 36 440;
#X obj 265 23 bng 15 250 50 0 empty empty empty 17 7 0 10 -262144 -1
-1;
#X obj 86 119 *~;
#X obj 125 -51 routeOSC /vol /note;
#X obj 122 132 vline~;
#X msg 185 85 1 0 \, 0 600;
#X obj 280 216;
#X connect 1 0 0 0;
#X connect 1 0 0 1;
#X connect 2 0 11 0;
#X connect 3 0 2 0;
#X connect 4 0 10 0;
#X connect 7 0 1 0;
#X connect 8 0 7 0;
#X connect 9 0 13 0;
#X connect 10 0 1 1;
#X connect 11 0 4 0;
#X connect 11 1 5 0;
#X connect 11 1 7 0;
#X connect 11 1 9 0;
#X connect 12 0 10 1;
#X connect 13 0 12 0;
