#N canvas 7 249 792 673 10;
#X declare -lib mrpeach;
#X obj 122 354 dac~;
#X obj 123 167 *~;
#X obj 154 -115 unpackOSC;
#X obj 154 -150 udpreceive 9002;
#X floatatom 30 100 5 0 0 0 - - -;
#X obj 52 -150 import mrpeach;
#X obj 136 86 osc~;
#X msg 101 54 440;
#X obj 183 55 bng 15 250 50 0 empty empty empty 17 7 0 10 -262144 -1
-1;
#X obj 154 -84 routeOSC /vol /note;
#X obj 184 105 vline~;
#X msg 183 78 1 0 \, 0 600;
#X obj 137 53 mtof;
#X obj 124 313 *~;
#X obj 282 169 *~;
#X obj 295 88 osc~;
#X obj 342 57 bng 15 250 50 0 empty empty empty 17 7 0 10 -262144 -1
-1;
#X obj 343 107 vline~;
#X msg 342 80 1 0 \, 0 600;
#X obj 296 55 mtof;
#X msg 260 56 880;
#X obj 213 -50 route 1 2 3 4;
#X obj 445 169 *~;
#X obj 458 88 osc~;
#X obj 505 57 bng 15 250 50 0 empty empty empty 17 7 0 10 -262144 -1
-1;
#X obj 506 107 vline~;
#X msg 505 80 1 0 \, 0 600;
#X obj 459 55 mtof;
#X msg 423 56 880;
#X obj 614 168 *~;
#X obj 674 56 bng 15 250 50 0 empty empty empty 17 7 0 10 -262144 -1
-1;
#X obj 675 106 vline~;
#X msg 674 79 1 0 \, 0 600;
#X obj 628 54 mtof;
#X msg 592 55 880;
#X obj 619 91 phasor~;
#X connect 1 0 13 1;
#X connect 2 0 9 0;
#X connect 3 0 2 0;
#X connect 4 0 13 0;
#X connect 6 0 1 0;
#X connect 7 0 6 0;
#X connect 8 0 11 0;
#X connect 9 0 4 0;
#X connect 9 1 21 0;
#X connect 10 0 1 1;
#X connect 11 0 10 0;
#X connect 12 0 6 0;
#X connect 13 0 0 0;
#X connect 13 0 0 1;
#X connect 14 0 13 1;
#X connect 15 0 14 0;
#X connect 16 0 18 0;
#X connect 17 0 14 1;
#X connect 18 0 17 0;
#X connect 19 0 15 0;
#X connect 20 0 15 0;
#X connect 21 0 8 0;
#X connect 21 0 12 0;
#X connect 21 1 19 0;
#X connect 21 1 16 0;
#X connect 21 2 27 0;
#X connect 21 2 24 0;
#X connect 21 3 33 0;
#X connect 21 3 30 0;
#X connect 22 0 13 1;
#X connect 23 0 22 0;
#X connect 24 0 26 0;
#X connect 25 0 22 1;
#X connect 26 0 25 0;
#X connect 27 0 23 0;
#X connect 28 0 23 0;
#X connect 29 0 13 1;
#X connect 30 0 32 0;
#X connect 31 0 29 1;
#X connect 32 0 31 0;
#X connect 33 0 35 0;
#X connect 34 0 35 0;
#X connect 35 0 29 0;
